:SAMPLES-PER-SECOND 30
:FULLY-SPECIFIED
:DEGREES
408
root  -25.1135 40.0845 -27.06 -102.696 -83.5422 98.0946
RightUpLeg  -22.9397 -14.7859 -8.22702
RightLeg  16.8557 -5.13801 -0.941516
RightFoot  2.86698 -0.521881 4.35201
RightToes  0.000482159 0.542163 -0.142577
Spine  22.3656 -1.16045 -4.57229
Spine1  8.75583 -1.46452 -2.30501
HEad  6.1058 4.90772 -3.62822
LeftShoulder1  8.93674 -13.6703 -45.3604
LeftArm  -12.3412 8.63098 -20.8286
LeftForeArm  12.3547 -66.5281 -26.0817
LeftHand  -0.25398 0.0180481 5.50724
RightShoulder  5.36712 9.52726 35.2225
RightArm  -7.28815 -13.9858 23.7624
RightForeArm  15.7758 77.3438 75.9576
RightHand  0.882026 -12.3538 -15.4877
LeftUpLeg  -2.17512 10.5434 -7.43152
LeftLeg  14.6654 2.19136 -3.55085
LeftFoot  -9.66861 0.0113533 3.1448
LeftToes  1.06247e-005 4.65855e-005 -8.18501e-006
409
root  -26.5462 39.9553 -27.3545 -86.5305 -82.6277 82.2809
RightUpLeg  -20.1239 -13.2841 -10.8121
RightLeg  3.3422 -11.6923 3.2641
RightFoot  1.77117 -0.709723 6.27681
RightToes  0.000482159 0.542163 -0.142577
Spine  22.8831 -1.50206 -5.36817
Spine1  9.14225 -2.15556 -1.72791
HEad  6.03455 3.93949 -3.34275
LeftShoulder1  8.99791 -13.8234 -45.2641
LeftArm  -11.9677 7.06598 -20.9521
LeftForeArm  10.2093 -64.7592 -23.9232
LeftHand  -0.25398 0.0180481 5.50724
RightShoulder  5.36755 9.56262 35.1161
RightArm  -7.59372 -13.8878 24.2638
RightForeArm  13.218 77.1344 72.1877
RightHand  0.782501 -11.5784 -15.5242
LeftUpLeg  -0.837614 11.4494 -8.02152
LeftLeg  16.1307 -0.537689 -3.12361
LeftFoot  -11.8437 0.0856795 2.44752
LeftToes  1.06247e-005 4.65855e-005 -8.18501e-006
410
root  -27.9085 39.6323 -27.7137 -74.2703 -81.1523 70.0728
RightUpLeg  -18.4798 -12.4507 -12.1104
RightLeg  -3.80287 -14.9794 5.40309
RightFoot  0.309934 -0.671306 6.52989
RightToes  0.000482159 0.542163 -0.142577
Spine  24.0585 -1.51935 -6.17868
Spine1  9.63213 -2.7237 -0.740639
HEad  5.79502 2.50347 -3.04225
LeftShoulder1  9.04269 -14.0874 -44.7882
LeftArm  -11.4524 5.08275 -21.3459
LeftForeArm  8.50312 -62.8915 -21.9377
LeftHand  -0.25398 0.0180481 5.50724
RightShoulder  5.34478 9.55775 34.9595
RightArm  -8.12865 -13.7365 24.878
RightForeArm  9.53679 76.8013 67.849
RightHand  0.723526 -11.2073 -15.3344
LeftUpLeg  -0.283482 12.31 -9.25427
LeftLeg  19.4727 -3.15478 -1.44825
LeftFoot  -14.9261 0.177897 2.82631
LeftToes  1.06247e-005 4.65855e-005 -8.18501e-006
411
root  -29.1537 39.1478 -28.0851 -65.2119 -79.7272 61.1939
RightUpLeg  -19.8586 -12.8019 -12.249
RightLeg  -1.71345 -14.9078 4.5541
RightFoot  2.50477 -0.521726 4.54735
RightToes  0.000482159 0.542163 -0.142577
Spine  26.0391 -1.43003 -5.84337
Spine1  9.69389 -3.01103 0.141168
HEad  5.29012 0.447531 -2.63952
LeftShoulder1  9.11518 -14.4551 -44.1951
LeftArm  -10.2185 2.51446 -21.6793
LeftForeArm  6.93741 -60.9033 -20.1217
LeftHand  -0.25398 0.0180481 5.50724
RightShoulder  5.28778 9.51831 34.6506
RightArm  -8.8758 -13.9149 25.349
RightForeArm  6.72221 76.535 65.1605
RightHand  0.718942 -11.2317 -15.1871
LeftUpLeg  -1.44869 8.62924 -10.1156
LeftLeg  25.3056 -1.02812 -0.109028
LeftFoot  -18.3602 0.197097 1.58378
LeftToes  1.06247e-005 4.65855e-005 -8.18501e-006
412
root  -30.2905 38.5411 -28.4055 -57.3691 -79.3911 53.8616
RightUpLeg  -23.7895 -13.9446 -11.3129
RightLeg  5.8802 -12.8964 3.53408
RightFoot  9.53053 0.152156 -0.290678
RightToes  0.000482159 0.542163 -0.142577
Spine  28.5698 -1.74652 -2.95224
Spine1  9.09139 -2.62176 -0.534872
HEad  4.25285 -2.17101 -2.16935
LeftShoulder1  9.27266 -14.8812 -43.9009
LeftArm  -8.18028 -1.16 -21.6867
LeftForeArm  4.8146 -58.4523 -18.2478
LeftHand  -0.25398 0.0180481 5.50724
RightShoulder  5.28805 9.61112 34.3687
RightArm  -10.0512 -14.0973 25.4759
RightForeArm  4.20863 76.2879 63.0058
RightHand  0.717839 -11.1971 -15.2485
LeftUpLeg  -5.58506 6.63962 -9.27134
LeftLeg  35.6949 0.39042 0.658341
LeftFoot  -19.6674 -0.00770518 -1.93675
LeftToes  1.06247e-005 4.65855e-005 -8.18501e-006
